<svg version="1.2" xmlns="http://www.w3.org/2000/svg" viewBox="0 0 233 104" width="233" height="104">
	<title>nuvem 3-svg</title>
	<style>
		.s0 { fill: #fefffe } 
		.s1 { fill: #d6f9ff } 
	</style>
	<g id="OBJECTS">
		<g id="&lt;Group&gt;">
			<path id="&lt;Path&gt;" class="s0" d="m232 76.1c-1 8.3-9.2 13.2-16.7 16-14.3 5.3-30.6 7.5-45 0.5-51.3 17-89.9 9.8-107.7 4.3-16.4 4.3-33.8 3.9-50-1.3-3.4-1.1-7-2.5-9.5-5.2-2.6-2.7-3.9-7.1-2.3-10.5q0.2-0.3 0.3-0.6c1.9-3.3 6.1-4.5 9.9-4.3q0.7 0 1.5 0.1c0.5-5.4 4.7-9.8 9.4-11.9 4.8-2.2 10.1-2.4 15.2-2.7-0.3-3.2-0.3-6.5 0.2-9.7q0-0.1 0-0.1c1-5.5 3.3-10.7 7.3-14.4 6.3-5.7 17-6 22.3 0.8 0.2-6.8 5.2-13.1 11.4-14.5 6.3-1.3 13.2 2.4 15.6 10.7 2.1-14.5 11.4-28.4 24.7-32.2 13.3-3.9 29.5 5.1 31.8 19.6 12.4-5.2 26.9-6.6 38.8-0.2 6.1 3.3 11.2 8.9 14.1 15.4 2.8 6.3 3.7 13.4 1.7 20 6.2 0.4 12.5 1 18 4.2 3 1.7 5.6 4.3 7.2 7.4 1 1.7 1.6 3.6 1.8 5.6q0.2 1.4 0 3z"/>
			<path id="&lt;Path&gt;" class="s1" d="m232 76.1c-1 8.3-9.2 13.2-16.7 16-14.3 5.3-30.6 7.5-45 0.5-51.3 17-89.9 9.8-107.7 4.3-16.4 4.3-33.8 3.9-50-1.3-3.4-1.1-7-2.5-9.5-5.2-2.6-2.7-3.9-7.1-2.3-10.5q0.2-0.3 0.3-0.6c6.6 5.7 15.7 8.5 24.3 7.2 10-1.5 19.1-8.4 23.1-17.8 9.3 7.7 22 11.1 33.8 9.2 11.9-1.8 22.9-9 29.4-19.1 3.6 10.7 16.6 14.5 27.8 16.1 8.7 1.2 17.6 2 26.1 0 8.6-2.1 16.7-7.4 20.1-15.5 5.2 7.5 12.9 13.7 21.8 15.5 8.2 1.7 17.5-1 22.7-7.4 1 1.7 1.6 3.6 1.8 5.6q0.2 1.4 0 3z"/>
			<g id="&lt;Group&gt;">
				<path id="&lt;Path&gt;" class="s0" d="m128.2 90.1c-7.1-0.3-14.2 0.7-21.3 0.1 10.9 6.5 25.6 6.4 36.8 0.6-5.2 0.3-10.3-0.6-15.5-0.7z"/>
				<path id="&lt;Path&gt;" class="s0" d="m123.5 82.7c8.4 4.3 18.5 4 27.2 1-9.1-1.9-18-1.5-27.2-1z"/>
			</g>
		</g>
	</g>
</svg>