<svg version="1.2" xmlns="http://www.w3.org/2000/svg" viewBox="0 0 471 145" width="471" height="145">
	<title>nuvem 4-svg</title>
	<style>
		.s0 { fill: #fefffe } 
		.s1 { fill: #d6f9ff } 
	</style>
	<g id="OBJECTS">
		<g id="&lt;Group&gt;">
			<path id="&lt;Path&gt;" class="s0" d="m459.9 119.3c-7.8 5.3-17.6 6.5-27 7.2-13.8 1-27.9 1.2-44.8-1.9-2.6 8-12.4 10.8-20.7 11.9-26.7 3.6-53.9 2.9-80.3-2.2-30.2 16.4-91.5 12-124.4-2.8-1-0.5-2.1-1-3.2-1.6-4 3.6-9.3 6.3-14.4 7.7-13.5 3.9-27.7 3.9-41.8 3.4-28.3-1.1-57.2-4.3-83.3-15.6-8.6-3.7-17.9-9.7-19.1-19-0.5-4 1-7.7 3.6-10.7 2.4-2.8 5.9-4.9 9.6-5.6q-1.5-2.1-2.2-4.6c-0.6-2.3-0.5-4.7 0.2-6.9 1.6-5.2 6.2-9.8 11.5-11.7 7.6-2.8 15.9-1.8 26.4 1.8-3.7-12.4 2-26.9 13.1-33.3 11.2-6.5 26.6-4.3 33.3 8 0.8-5.9 3.3-11.5 6.8-16.3 5.2-7.1 12.9-12.5 21.5-14.5 14.5-3.4 30.7 2.8 38.6 18.4 5.7-12.9 16.7-23.6 30.1-28.2 13.4-4.5 29.1-2.3 40.2 6.4 11.2 8.7 17 24 10.3 39.7 13.4-1.8 27.3-3.6 40.5-0.5 13.2 3.2 25.8 12.4 30.6 27.2 1.6-11.8 8.7-22.5 18.2-29.6 9.5-7.1 21.2-10.8 33-12.1 14.4-1.5 29.7 1 41 9.8 4.2 3.3 7.6 7.5 10 12.3 4.3 8.5 5.6 18.8 2.3 29.2 10.3-4 21.7-4.7 32.4-2 5 1.3 10.1 3.5 13.6 7.2q1.3 1.3 2.3 2.8 0.5 0.8 0.9 1.7c3.9 8.5-1 19.1-8.8 24.4z"/>
			<g id="&lt;Group&gt;">
				<path id="&lt;Path&gt;" class="s1" d="m459.9 119.3c-7.8 5.3-17.6 6.5-27 7.2-13.8 1-27.9 1.2-44.8-1.9-2.6 8-12.4 10.8-20.7 11.9-26.7 3.6-53.9 2.9-80.3-2.2-30.2 16.4-91.5 12-124.4-2.8-1-0.5-2.1-1-3.2-1.6-4 3.6-9.3 6.3-14.4 7.7-13.5 3.9-27.7 3.9-41.8 3.4-28.3-1.1-57.2-4.3-83.3-15.6-8.6-3.7-17.9-9.7-19.1-19-0.5-4 1-7.7 3.6-10.7 0.7 1.8 1.9 3.4 3.3 4.5 3.4 2.7 7.9 3.7 12.2 4.4 10.2 1.9 20.7 3.3 30.9 2 10.3-1.3 20.6-5.8 27-14 28.7 21.8 72.5 20.7 100.1-2.6 9 10.6 23.4 14.7 37.1 17.4 12.4 2.5 25.2 4.3 37.8 2.7 12.6-1.6 25.2-6.9 33-17 14.3 5.5 29.1 11.1 44.4 11 15.4-0.2 31.7-7.2 38.4-21 12.8 17.8 37.3 22.1 59.2 22.7 14.4 0.4 31.4-1.8 39.9-12.6q0.5 0.8 0.9 1.7c3.9 8.5-1 19.1-8.8 24.4z"/>
				<path id="&lt;Path&gt;" class="s1" d="m123 57.7c3.9 5.3 10.2 8.9 16.9 9.5 6.6 0.6 13.4-1.7 18.3-6.3 5.8 7.4 15.4 11.9 24.7 10.6 9.3-1.2 17.7-8.6 19.3-17.8-5.2 6.9-14.8 9.5-23.3 7.9-8.4-1.7-15.8-7.1-21.3-13.8-0.5-0.6-1.1-1.4-2-1.3-0.6 0-1.2 0.5-1.6 1-4.1 4.1-8.6 8-14 10.1-5.4 2.2-11.9 2.2-17 0.1z"/>
			</g>
			<g id="&lt;Group&gt;">
				<path id="&lt;Path&gt;" class="s0" d="m114.2 124.3c-5.6-0.3-11.2 0.4-16.8 0.7 10.5 4.5 23.6 6.2 34 0.4-4.7-0.1-11.7-0.6-17.2-1.1z"/>
				<path id="&lt;Path&gt;" class="s0" d="m83.5 126c-4.4-2.4-9.2-3.5-14.2-4.1 4 3 9 4.4 13.9 4.4 0.5 0 1.1 0.1 0.3-0.3z"/>
				<path id="&lt;Path&gt;" class="s0" d="m352 123.2c-5.8-0.2-11.7 0.7-17.5 1 9.7 4.3 21.5 4.5 31.2 0.2-3.1-0.4-9.4-1-13.7-1.2z"/>
				<path id="&lt;Path&gt;" class="s0" d="m373.5 113.4c-7.5-0.6-14.8 0.7-22.1 1.9 8.8 3.1 18.7 2.4 27.3-1.2 2-0.6-4.3-0.5-5.2-0.7z"/>
				<path id="&lt;Path&gt;" class="s0" d="m321.5 114.9c4.4 1.8 9.3 2 13.9 0.9-4.5-1.4-9.3-1.6-13.9-0.9z"/>
			</g>
		</g>
	</g>
</svg>