<svg version="1.2" xmlns="http://www.w3.org/2000/svg" viewBox="0 0 419 186" width="419" height="186">
	<title>nuvem 1-svg</title>
	<style>
		.s0 { fill: #fefffe } 
		.s1 { fill: #d6f9ff } 
	</style>
	<g id="OBJECTS">
		<g id="&lt;Group&gt;">
			<path id="&lt;Path&gt;" class="s0" d="m418.2 147.3c-0.4 7.8-8.3 12.5-15.3 15.1-16.9 6.2-35 8.5-52.8 6.8-4.1 3.7-9.2 6-14.5 7.7-11.5 3.5-24.2 3.6-35.5-0.5-2.3-0.9-4.6-1.9-6.8-3.1-3.5 0.5-7 1-10.5 1.4-22.9 2.6-47.1 5.1-68.8-1.7-9.9 10.9-26.4 15.5-40.5 11-6.6-2.1-12.5-6.1-17-11.3-9.6 1.4-19.3 1.6-28.9 0.2-12.8-1.8-25.4-6.8-35.9-15.6-3.8 2.5-9 3.7-13.7 4.3-15.8 2-31.9 1.7-47.6-0.9-7.3-1.3-14.6-3-20.6-7.4-5.9-4.3-10-11.8-8.6-19 0.6-2.9 2-5.4 4-7.5 4.1-4.4 10.8-6.9 17.1-6.9 0.2 0.1 0.5 0 0.8 0.1 0-1.8 0.4-3.6 0.9-5.3 1-3.6 2.9-7 5.4-9.8q0.2-0.2 0.4-0.4c5.6-5.6 13.4-8.5 21.2-8.9 7.9-0.4 15.7 1.4 24.4 5.3 0.1-11.3 7.1-22.3 17.1-26.8 10-4.4 22.4-1.9 31.4 8.3 1.2-16.3 11.7-31.5 26-37.9 14.4-6.5 32-3.8 43.2 9.6 3.7-11.2 17-17.7 26.4-12.5 2.7-15.2 12.3-29 25.5-36.1 13.1-7.1 29.4-7.5 42.8-0.9 6.1 3 11.7 7.5 15.2 13.5 3.5 6.1 4.7 13.9 2 23.4 12.4-4.4 26.7-2.7 37.8 4.5 11.2 7.2 19 19.9 20.7 33.5 0.7 5.5 0.4 11.2-3.6 18.5 9.2-3.4 20-1.3 27.4 5.3 1.8 1.5 3.4 3.3 4.7 5.3q1.6 2.4 2.7 5c2.3 5.3 3.2 11.3 2.3 17.1 8.3 1 18.3 4.9 20.7 12.4q0.7 1.9 0.5 4.2z"/>
			<path id="&lt;Path&gt;" class="s1" d="m418.2 147.3c-0.4 7.8-8.3 12.5-15.3 15.1-16.9 6.2-35 8.5-52.8 6.8-4.1 3.7-9.2 6-14.5 7.7-11.5 3.5-24.2 3.6-35.5-0.5-2.3-0.9-4.6-1.9-6.8-3.1-3.5 0.5-7 1-10.5 1.4-22.9 2.6-47.1 5.1-68.8-1.7-9.9 10.9-26.4 15.5-40.5 11-6.6-2.1-12.5-6.1-17-11.3-9.6 1.4-19.3 1.6-28.9 0.2-12.8-1.8-25.4-6.8-35.9-15.6-3.8 2.5-9 3.7-13.7 4.3-15.8 2-31.9 1.7-47.6-0.9-7.3-1.3-14.6-3-20.6-7.4-5.9-4.3-10-11.8-8.6-19 0.6-2.9 2-5.4 4-7.5 1.7 5.9 8.5 9.8 14.7 11.9 24.7 8.1 52.9 4.3 74.6-10 20.1 21.2 58.2 21.1 78.2-0.1 8.1 10.8 27.1 10.5 34.8-0.6 9.5 9.5 25 11.6 37.6 6.9 12.6-4.7 22.4-15.2 28.5-27.2 10.4 10.4 23.9 18.6 38.6 19.8 14.8 1.3 30.6-5.5 37.6-18.5 3.2 10 14.2 16.9 24.6 15.2 8.2-1.3 15.1-7.8 17.6-15.6q1.6 2.4 2.7 5c2.3 5.3 3.2 11.3 2.3 17.1 8.3 1 18.3 4.9 20.7 12.4q0.7 1.9 0.5 4.2z"/>
			<g id="&lt;Group&gt;">
				<path id="&lt;Path&gt;" class="s0" d="m140.3 159.5c-6.4-0.5-12.8 0.1-19.2-0.5 9.6 6.3 22 5.7 32.6 2.3-5.1-0.9-8.3-1.4-13.4-1.8z"/>
				<path id="&lt;Path&gt;" class="s0" d="m156.9 151.7c-5.9 0-9.3 0.7-15.2 1.7 6.7 2.3 14 2 20.6-0.4 5.1-1.3-3.6-1.1-5.4-1.3z"/>
				<path id="&lt;Path&gt;" class="s0" d="m293.7 160.2c-2.9 0.2-5.8 0-8.6 0-9.3-0.2-18.3 2-27.4 3.2 11.6 4.2 24.9 2.7 35.9-2.8 0.4-0.3 0.9-0.6 0.1-0.4z"/>
				<path id="&lt;Path&gt;" class="s0" d="m304.5 166c12.1 6.8 29.1 5.6 37.3-5.6-11.7 5-24.8 5.3-37.3 5.6z"/>
				<path id="&lt;Path&gt;" class="s0" d="m291.8 151.7c9.2 5 20.6 6 29.7 0.2-9.9 0.5-19.8-0.5-29.7-0.2z"/>
			</g>
		</g>
	</g>
</svg>