<svg version="1.2" xmlns="http://www.w3.org/2000/svg" viewBox="0 0 230 113" width="230" height="113">
	<title>nuvem 2-svg</title>
	<style>
		.s0 { fill: #fefffe } 
		.s1 { fill: #d6f9ff } 
	</style>
	<g id="OBJECTS">
		<g id="&lt;Group&gt;">
			<path id="&lt;Path&gt;" class="s0" d="m217 104.5c-3.4 1.3-7.1 1.5-10.8 1.5-11.5 0.3-23.1-0.4-34.5-2.3v0.3c-9.1 4.9-21 3.1-29.3-3.7-3.3 2.9-8.1 5-12.4 6.2-36.8 10.1-76.8 8.3-112.5-5-8.4-3.1-18.2-9.6-16.4-18.4q0.2-0.9 0.6-1.8c1.4-3.3 4.5-5.9 8-7.3-0.5-2.4-0.5-5 0.2-7.4q0.1-0.3 0.2-0.6c0.9-2.9 2.7-5.3 4.7-7.5q0.3-0.3 0.6-0.6c10.9-11 29.4-13.6 42.7-4.8 0.8-14.8 12.6-28.2 27.2-30.9 5.7-1 12-0.3 18.3 3.3 18.3-39.5 78.8-29.1 91.3 9.3 3 9.1 3.3 19.7-0.3 31.7 6.5-1.1 13.4-2 19.7 0.1 2.8 0.9 5.4 2.4 7.6 4.4 3.5 3 6 7.2 7 11.7q0.2 1 0.3 2.1c0.7 8.2-4.4 16.8-12.2 19.7z"/>
			<path id="&lt;Path&gt;" class="s1" d="m217 104.5c-3.4 1.3-7.1 1.5-10.8 1.5-11.5 0.3-23.1-0.4-34.5-2.3v0.3c-9.1 4.9-21 3.1-29.3-3.7-3.3 2.9-8.1 5-12.4 6.2-36.8 10.1-76.8 8.3-112.5-5-8.4-3.1-18.2-9.6-16.4-18.4q0.2-0.9 0.6-1.8c10.1 8.8 25.8 9.2 39.4 7.6 14.2-1.7 30.1-5.9 36.9-18.4 9.8 7.6 22 12.8 34.4 12.1 12.3-0.7 24.7-8 29.2-19.5 11.1 17.1 32.1 25.1 52.2 28.6 11.8 2 25.7 2 33.5-7.1q0.8-0.9 1.6-1.9 0.2 1 0.3 2.1c0.7 8.2-4.4 16.8-12.2 19.7z"/>
			<g id="&lt;Group&gt;">
				<path id="&lt;Path&gt;" class="s0" d="m59.5 101.4c9.8 4.9 22 7.1 32.1 1.9-11-0.5-19.7-2.6-32.1-1.9z"/>
				<path id="&lt;Path&gt;" class="s0" d="m98.8 95.8c-7.5-0.9-14-0.2-21 1.1 7.8 2.6 16.4 2.6 24-0.6 1.6-0.5-2.4-0.4-3-0.5z"/>
				<path id="&lt;Path&gt;" class="s0" d="m58.3 93.2c2.2 1.3 4.8 1.6 7.3 0.9-2.4-0.7-4.9-1-7.3-0.9z"/>
				<path id="&lt;Path&gt;" class="s0" d="m142.6 94.2c8 4 17.1 5.3 25.8 2.8-8.4-2.1-17.1-3.3-25.8-2.8z"/>
			</g>
		</g>
	</g>
</svg>