<svg version="1.2" xmlns="http://www.w3.org/2000/svg" viewBox="0 0 174 174" width="174" height="174">
	<title>12022-NOR73L-ai</title>
	<style>
		.s0 { fill: #ffffff } 
		.s1 { fill: #ffc400 } 
		.s2 { fill: #ffc400;stroke: #ffffff;stroke-miterlimit:10;stroke-width: 6 } 
		.s3 { fill: #ffc400;stroke: #ffffff;stroke-miterlimit:10;stroke-width: 10.4 } 
		.s4 { fill: none;stroke: #ffc400;stroke-miterlimit:10;stroke-width: 5.5 } 
		.s5 { fill: #ffc400;stroke: #ffffff;stroke-miterlimit:10;stroke-width: 10 } 
		.s6 { fill: none;stroke: #ffc400;stroke-miterlimit:10;stroke-width: 3.3 } 
		.s7 { fill: #ffc400;stroke: #ffffff;stroke-miterlimit:10;stroke-width: 5.8 } 
		.s8 { fill: #ffc400;stroke: #ffffff;stroke-miterlimit:10;stroke-width: 6.1 } 
		.s9 { fill: #ffc400;stroke: #ffffff;stroke-miterlimit:10;stroke-width: 5 } 
		.s10 { fill: none;stroke: #ffc400;stroke-miterlimit:10;stroke-width: 37.6;stroke-dasharray: 5.29287,14.82 } 
	</style>
	<g id="background" style="display: none">
		<path id="&lt;Path&gt;" class="s0" d="m218 248h-800v-800h800z"/>
	</g>
	<g id="objects">
		<g id="&lt;Group&gt;">
			<g id="&lt;Group&gt;" style="display: none">
				<g id="&lt;Group&gt;">
					<path id="&lt;Path&gt;" class="s1" d="m-354-419.6l-59.4 8.8 47.1 37.3-55.9-22.2 22.2 55.9-37.4-47.1-8.8 59.4-8.7-59.4-37.4 47.1 22.2-55.9-55.9 22.2 47.1-37.3-59.4-8.8 59.4-8.8-47.1-37.4 55.9 22.2-22.2-55.9 37.4 47.1 8.7-59.4 8.8 59.4 37.4-47.1-22.2 55.9 55.9-22.2-47.1 37.4z"/>
				</g>
				<g id="&lt;Group&gt;">
					<path id="&lt;Path&gt;" class="s1" d="m-335-389l-74.6-9.2 44.4 60.7-60-45.3 8.2 74.7-29.4-69.2-30.4 68.8 9.2-74.6-60.7 44.4 45.3-60-74.7 8.2 69.2-29.4-68.8-30.3 74.6 9.1-44.4-60.7 60 45.3-8.2-74.7 29.4 69.2 30.4-68.8-9.2 74.6 60.7-44.4-45.3 60 74.7-8.1-69.2 29.3z"/>
				</g>
				<path id="&lt;Path&gt;" class="s2" d="m-396.9-419.6c0 27.2-22.1 49.2-49.3 49.2-27.1 0-49.2-22-49.2-49.2 0-27.2 22.1-49.3 49.2-49.3 27.2 0 49.3 22.1 49.3 49.3z"/>
			</g>
			<g id="&lt;Group&gt;" style="display: none">
				<g id="&lt;Group&gt;">
					<path id="&lt;Path&gt;" class="s1" d="m188.1-390.1l-86.3-21 77 44.2-79.4-39.7 65.2 60.3-68.5-56.5 50.1 73.3-54.3-70.3 32.6 82.6-37.3-80.6 13.4 87.8-18.4-86.9-6.5 88.6 1.4-88.8-26 84.9 21-86.3-44.2 77 39.8-79.4-60.4 65.2 56.5-68.5-73.3 50.1 70.3-54.3-82.6 32.6 80.6-37.3-87.8 13.5 86.9-18.5-88.6-6.5 88.8 1.5-84.9-26.1 86.3 21-77-44.2 79.4 39.8-65.2-60.3 68.5 56.5-50.1-73.4 54.3 70.3-32.6-82.6 37.3 80.6-13.5-87.8 18.5 86.9 6.5-88.6-1.5 88.8 26.1-84.9-21 86.3 44.2-77-39.8 79.4 60.3-65.2-56.5 68.5 73.4-50.1-70.3 54.3 82.6-32.6-80.6 37.3 87.8-13.4-86.9 18.4 88.6 6.5-88.8-1.4z"/>
				</g>
				<path id="&lt;Path&gt;" class="s3" d="m135.9-419.6c0 30.5-24.8 55.2-55.3 55.2-30.5 0-55.2-24.7-55.2-55.2 0-30.5 24.7-55.3 55.2-55.3 30.5 0 55.3 24.8 55.3 55.3z"/>
			</g>
			<g id="&lt;Group&gt;" style="display: none">
				<g id="&lt;Group&gt;">
					<path id="&lt;Path&gt;" class="s1" d="m-88.7-419.6l-59.3 8.6 47 37.1-55.6-22.3 22.2 55.7-37.1-47.1-8.6 59.3-8.6-59.3-37.1 47.1 22.2-55.7-55.6 22.3 47-37.1-59.3-8.6 59.3-8.6-47-37.2 55.6 22.3-22.2-55.7 37.1 47.1 8.6-59.3 8.6 59.3 37.1-47.1-22.2 55.7 55.6-22.3-47 37.2z"/>
					<path id="&lt;Path&gt;" class="s4" d="m-88.7-419.6l-59.3 8.6 47 37.1-55.6-22.3 22.2 55.7-37.1-47.1-8.6 59.3-8.6-59.3-37.1 47.1 22.2-55.7-55.6 22.3 47-37.1-59.3-8.6 59.3-8.6-47-37.2 55.6 22.3-22.2-55.7 37.1 47.1 8.6-59.3 8.6 59.3 37.1-47.1-22.2 55.7 55.6-22.3-47 37.2z"/>
				</g>
				<path id="&lt;Path&gt;" class="s5" d="m-117.8-419.6c0 34.4-27.9 62.2-62.3 62.2-34.4 0-62.3-27.8-62.3-62.2 0-34.4 27.9-62.3 62.3-62.3 34.4 0 62.3 27.9 62.3 62.3z"/>
			</g>
			<g id="&lt;Group&gt;" style="display: none">
				<g id="&lt;Group&gt;">
					<path id="&lt;Path&gt;" class="s1" d="m-353 87.5c0 4-28.6 5.7-29.2 9.5-0.6 3.9 26.1 14.4 24.9 18-1.3 3.8-29-3.4-30.8 0.1-1.8 3.5 20.4 21.7 18.1 24.8-2.4 3.2-26.5-12.2-29.3-9.5-2.7 2.8 12.7 27 9.5 29.3-3.1 2.3-21.3-19.9-24.9-18.1-3.4 1.8 3.8 29.6 0 30.8-3.7 1.2-14.1-25.5-18-24.9-3.8 0.6-5.6 29.2-9.6 29.2-3.9 0-5.7-28.6-9.5-29.2-3.9-0.6-14.3 26.1-18 24.9-3.8-1.2 3.4-29 0-30.8-3.6-1.8-21.8 20.4-24.9 18.1-3.2-2.3 12.2-26.5 9.5-29.3-2.8-2.7-27 12.7-29.3 9.5-2.3-3.1 19.9-21.3 18.1-24.8-1.8-3.5-29.5 3.7-30.8-0.1-1.2-3.6 25.5-14.1 24.9-18-0.6-3.8-29.2-5.5-29.2-9.5 0-4 28.6-5.7 29.2-9.6 0.6-3.9-26.1-14.3-24.9-18 1.3-3.8 29 3.4 30.8 0 1.8-3.5-20.4-21.8-18.1-24.9 2.4-3.2 26.5 12.3 29.3 9.5 2.7-2.8-12.7-26.9-9.5-29.3 3.1-2.3 21.3 19.9 24.9 18.1 3.4-1.8-3.8-29.5 0-30.8 3.7-1.2 14.1 25.5 18 24.9 3.8-0.6 5.6-29.2 9.5-29.2 4 0 5.8 28.6 9.6 29.2 3.9 0.6 14.3-26.1 18-24.9 3.8 1.3-3.4 29 0 30.8 3.6 1.8 21.8-20.4 24.9-18.1 3.2 2.4-12.2 26.5-9.5 29.3 2.8 2.8 26.9-12.7 29.3-9.5 2.3 3.1-19.9 21.4-18.1 24.9 1.8 3.4 29.5-3.8 30.8 0 1.2 3.7-25.5 14.1-24.9 18 0.6 3.9 29.2 5.6 29.2 9.6z"/>
					<path id="&lt;Path&gt;" class="s6" d="m-353 87.5c0 4-28.6 5.7-29.2 9.5-0.6 3.9 26.1 14.4 24.9 18-1.3 3.8-29-3.4-30.8 0.1-1.8 3.5 20.4 21.7 18.1 24.8-2.4 3.2-26.5-12.2-29.3-9.5-2.7 2.8 12.7 27 9.5 29.3-3.1 2.3-21.3-19.9-24.9-18.1-3.4 1.8 3.8 29.6 0 30.8-3.7 1.2-14.1-25.5-18-24.9-3.8 0.6-5.6 29.2-9.6 29.2-3.9 0-5.7-28.6-9.5-29.2-3.9-0.6-14.3 26.1-18 24.9-3.8-1.2 3.4-29 0-30.8-3.6-1.8-21.8 20.4-24.9 18.1-3.2-2.3 12.2-26.5 9.5-29.3-2.8-2.7-27 12.7-29.3 9.5-2.3-3.1 19.9-21.3 18.1-24.8-1.8-3.5-29.5 3.7-30.8-0.1-1.2-3.6 25.5-14.1 24.9-18-0.6-3.8-29.2-5.5-29.2-9.5 0-4 28.6-5.7 29.2-9.6 0.6-3.9-26.1-14.3-24.9-18 1.3-3.8 29 3.4 30.8 0 1.8-3.5-20.4-21.8-18.1-24.9 2.4-3.2 26.5 12.3 29.3 9.5 2.7-2.8-12.7-26.9-9.5-29.3 3.1-2.3 21.3 19.9 24.9 18.1 3.4-1.8-3.8-29.5 0-30.8 3.7-1.2 14.1 25.5 18 24.9 3.8-0.6 5.6-29.2 9.5-29.2 4 0 5.8 28.6 9.6 29.2 3.9 0.6 14.3-26.1 18-24.9 3.8 1.3-3.4 29 0 30.8 3.6 1.8 21.8-20.4 24.9-18.1 3.2 2.4-12.2 26.5-9.5 29.3 2.8 2.8 26.9-12.7 29.3-9.5 2.3 3.1-19.9 21.4-18.1 24.9 1.8 3.4 29.5-3.8 30.8 0 1.2 3.7-25.5 14.1-24.9 18 0.6 3.9 29.2 5.6 29.2 9.6z"/>
				</g>
				<path id="&lt;Path&gt;" class="s1" d="m-374.2 87.5c0 37.6-30.4 68.1-68.1 68.1-37.6 0-68-30.5-68-68.1 0-37.6 30.4-68.1 68-68.1 37.7 0 68.1 30.5 68.1 68.1z"/>
				<path id="&lt;Path&gt;" class="s7" d="m-383.7 87.5c0 32.3-26.2 58.5-58.6 58.5-32.3 0-58.5-26.2-58.5-58.5 0-32.4 26.2-58.5 58.5-58.5 32.4 0 58.6 26.1 58.6 58.5z"/>
			</g>
			<g id="&lt;Group&gt;" style="display: none">
				<g id="&lt;Group&gt;">
					<path id="&lt;Path&gt;" class="s1" d="m187.5-162.5c-53 7.5-54.5 14.6-8.4 41.6-51.6-14.2-55.5-8.4-22.9 34-42.4-32.6-48.2-28.7-34 22.9-27-46.1-34.1-44.6-41.6 8.4-7.4-53-14.5-54.5-41.6-8.4 14.2-51.6 8.4-55.5-33.9-22.9 32.6-42.4 28.7-48.2-22.9-34 46.1-27 44.6-34.1-8.4-41.6 53-7.4 54.5-14.5 8.4-41.6 51.6 14.2 55.5 8.4 22.9-33.9 42.3 32.6 48.1 28.7 33.9-22.9 27.1 46.1 34.2 44.6 41.6-8.4 7.5 53 14.6 54.5 41.6 8.4-14.2 51.6-8.4 55.5 34 22.9-32.6 42.3-28.7 48.1 22.9 33.9-46.1 27.1-44.6 34.2 8.4 41.6z"/>
				</g>
				<path id="&lt;Path&gt;" class="s8" d="m139.9-162.5c0 32.8-26.5 59.3-59.3 59.3-32.7 0-59.2-26.5-59.2-59.3 0-32.7 26.5-59.2 59.2-59.2 32.8 0 59.3 26.5 59.3 59.2z"/>
			</g>
			<g id="&lt;Group&gt;">
				<path id="&lt;Path&gt;" fill-rule="evenodd" class="s1" d="m146.9 87c0 33.1-26.9 59.9-60 59.9-33.1 0-60-26.8-60-59.9 0-33.1 26.9-60 60-60 33.1 0 60 26.9 60 60z"/>
			</g>
			<g id="&lt;Group&gt;" style="display: none">
				<path id="&lt;Path&gt;" class="s9" d="m-136.7 87.5c0 26.9-21.9 48.7-48.8 48.7-26.9 0-48.7-21.8-48.7-48.7 0-27 21.8-48.8 48.7-48.8 26.9 0 48.8 21.8 48.8 48.8z"/>
				<g id="&lt;Group&gt;">
					<path id="&lt;Path&gt;" class="s10" d="m-111.9 87.5c0 40.6-32.9 73.6-73.6 73.6-40.6 0-73.6-33-73.6-73.6 0-40.7 33-73.7 73.6-73.7 40.7 0 73.6 33 73.6 73.7z"/>
				</g>
			</g>
			<g id="&lt;Group&gt;" style="display: none">
				<g id="&lt;Group&gt;">
					<path id="&lt;Path&gt;" class="s1" d="m-342.6-157.1l-35.5 14.7 25.7 28.6-38.4-2.2 10.7 36.9-33.6-18.6-6.4 37.8-22.2-31.3-22.1 31.3-6.4-37.8-33.6 18.6 10.7-36.9-38.4 2.2 25.6-28.6-35.4-14.7 35.4-14.6-25.6-28.6 38.4 2.2-10.7-36.9 33.6 18.6 6.4-37.8 22.1 31.3 22.2-31.3 6.4 37.8 33.6-18.6-10.7 36.9 38.4-2.2-25.7 28.6z"/>
				</g>
				<path id="&lt;Path&gt;" class="s2" d="m-388.5-157.1c0 29.7-24.1 53.8-53.8 53.8-29.6 0-53.7-24.1-53.7-53.8 0-29.6 24.1-53.7 53.7-53.7 29.7 0 53.8 24.1 53.8 53.7z"/>
			</g>
			<g id="&lt;Group&gt;" style="display: none">
				<g id="&lt;Group&gt;" style="display: none">
					<path id="&lt;Path&gt;" class="s1" d="m-75.2-168.6c-17.1 11-32.2 18.2-45.5 22.9 8.6 6.7 19.7 13 32.6 19.5-18.5 2.7-33.9 3-47.2 2 4.6 9.5 11 19.6 18.7 30.3-14.5-4.8-27.7-10.3-39.2-16.2 1.1 10.6 4.3 22.7 10.6 37.1-13.3-10.5-24.7-21.1-33.8-31.3-2.4 10.8-3.1 24.2-1.8 41.3-11-17.1-18.2-32.2-22.9-45.5-6.7 8.7-13 19.8-19.5 32.6-2.7-18.5-3-33.9-2-47.2-9.5 4.6-19.6 11-30.3 18.7 4.8-14.5 10.3-27.7 16.3-39.2-10.7 1.1-22.8 4.3-37.2 10.6 10.5-13.3 21.1-24.7 31.3-33.8-10.8-2.4-24.2-3.1-41.3-1.8 17.1-11 32.2-18.2 45.5-22.9-8.7-6.7-19.7-13-32.6-19.5 18.5-2.7 33.9-3 47.2-2-4.6-9.5-11-19.6-18.7-30.2 14.5 4.8 27.7 10.2 39.2 16.2-1.1-10.7-4.3-22.7-10.6-37.1 13.3 10.4 24.7 21 33.8 31.2 2.4-10.8 3.1-24.1 1.8-41.3 11 17.2 18.2 32.2 22.9 45.5 6.7-8.6 13-19.7 19.5-32.6 2.7 18.5 3 33.9 2 47.2 9.5-4.6 19.6-11 30.3-18.6-4.9 14.4-10.3 27.6-16.3 39.1 10.7-1.1 22.7-4.3 37.2-10.6-10.5 13.3-21.1 24.7-31.3 33.8 10.8 2.4 24.1 3.2 41.3 1.8z"/>
				</g>
				<path id="&lt;Path&gt;" class="s8" d="m-126.4-168.6c0 30-24.4 54.4-54.4 54.4-30 0-54.4-24.4-54.4-54.4 0-30 24.4-54.4 54.4-54.4 30 0 54.4 24.4 54.4 54.4z"/>
			</g>
		</g>
		<g id="&lt;Group&gt;" style="display: none">
			<g id="&lt;Group&gt;">
				<path id="&lt;Compound Path&gt;" fill-rule="evenodd" class="s1" d="m-293.5 223.7v-0.3q-0.5 0.6-1 1-0.5 0.4-1.1 0.6-0.6 0.2-1.3 0.2-1 0-1.8-0.4-0.8-0.4-1.3-1.2-0.6-0.7-0.9-1.7-0.3-1-0.3-2.1 0-2.5 1.2-3.8 1.2-1.4 3.1-1.4 1.1 0 1.9 0.4 0.8 0.4 1.5 1.2v-3.8q0-0.8 0.3-1.2 0.3-0.4 0.9-0.4 0.6 0 0.9 0.3 0.3 0.4 0.3 1.1v11.5q0 0.7-0.3 1.1-0.3 0.4-0.9 0.4-0.5 0-0.9-0.4-0.3-0.4-0.3-1.1zm-5.1-3.8q0 1 0.3 1.8 0.3 0.7 0.9 1.1 0.6 0.3 1.3 0.3 0.6 0 1.2-0.3 0.6-0.4 0.9-1.1 0.3-0.7 0.3-1.8 0-1.1-0.3-1.8-0.3-0.8-0.9-1.2-0.6-0.4-1.3-0.4-0.7 0-1.2 0.5-0.6 0.4-0.9 1.1-0.3 0.8-0.3 1.8z"/>
				<path id="&lt;Compound Path&gt;" fill-rule="evenodd" class="s1" d="m-282.1 220.5h-5q0 0.9 0.3 1.6 0.4 0.7 0.9 1 0.6 0.3 1.3 0.3 0.5 0 0.9-0.1 0.3-0.1 0.7-0.3 0.4-0.2 0.7-0.5 0.3-0.3 0.7-0.7 0.2-0.2 0.6-0.2 0.4 0 0.7 0.2 0.2 0.2 0.2 0.6 0 0.4-0.3 0.8-0.2 0.5-0.8 1-0.6 0.4-1.4 0.7-0.8 0.3-1.9 0.3-2.5 0-3.9-1.5-1.4-1.4-1.4-3.8 0-1.2 0.3-2.2 0.4-1 1-1.7 0.7-0.7 1.7-1 0.9-0.4 2.1-0.4 1.5 0 2.6 0.6 1.1 0.7 1.6 1.7 0.6 1 0.6 2.1 0 0.9-0.6 1.2-0.6 0.3-1.6 0.3zm-5-1.5h4.7q-0.1-1.3-0.8-1.9-0.6-0.7-1.6-0.7-1 0-1.6 0.7-0.6 0.6-0.7 1.9z"/>
				<path id="&lt;Compound Path&gt;" class="s1" d="m-270.3 221.8q0 1-0.5 1.8-0.5 0.8-1.5 1.2-1 0.4-2.5 0.4-1.4 0-2.4-0.5-1-0.4-1.5-1-0.4-0.7-0.4-1.3 0-0.5 0.3-0.8 0.3-0.3 0.7-0.3 0.4 0 0.7 0.2 0.2 0.2 0.4 0.6 0.4 0.7 0.9 1 0.6 0.4 1.5 0.4 0.8 0 1.3-0.4 0.5-0.3 0.5-0.8 0-0.7-0.5-1-0.5-0.3-1.7-0.6-1.3-0.3-2.2-0.7-0.8-0.3-1.3-0.9-0.5-0.6-0.5-1.5 0-0.8 0.4-1.5 0.5-0.7 1.4-1.1 0.9-0.4 2.2-0.4 1 0 1.8 0.2 0.8 0.2 1.3 0.6 0.6 0.3 0.9 0.8 0.2 0.4 0.2 0.8 0 0.4-0.3 0.7-0.3 0.3-0.8 0.3-0.4 0-0.7-0.2-0.3-0.2-0.6-0.7-0.3-0.4-0.7-0.6-0.4-0.2-1.1-0.2-0.7 0-1.2 0.3-0.4 0.3-0.4 0.7 0 0.4 0.3 0.7 0.3 0.2 0.9 0.4 0.6 0.2 1.6 0.4 1.2 0.3 2 0.7 0.8 0.4 1.1 1 0.4 0.5 0.4 1.3z"/>
				<path id="&lt;Compound Path&gt;" class="s1" d="m-267.6 213.4q-0.6 0-0.9-0.3-0.4-0.4-0.4-1 0-0.5 0.4-0.9 0.4-0.3 0.9-0.3 0.5 0 0.9 0.3 0.4 0.3 0.4 0.9 0 0.6-0.4 1-0.4 0.3-0.9 0.3zm1.3 2.7v7.5q0 0.8-0.4 1.2-0.4 0.4-0.9 0.4-0.6 0-1-0.5-0.3-0.4-0.3-1.1v-7.4q0-0.8 0.3-1.2 0.4-0.4 1-0.4 0.5 0 0.9 0.4 0.4 0.4 0.4 1.1z"/>
				<path id="&lt;Compound Path&gt;" fill-rule="evenodd" class="s1" d="m-255 216.5v7.5q0 1.3-0.2 2.3-0.3 0.9-0.9 1.5-0.6 0.6-1.6 0.9-1 0.3-2.5 0.3-1.3 0-2.4-0.4-1-0.4-1.6-0.9-0.6-0.6-0.6-1.3 0-0.4 0.4-0.7 0.3-0.3 0.7-0.3 0.6 0 1 0.5 0.3 0.2 0.5 0.5 0.2 0.2 0.5 0.4 0.2 0.2 0.6 0.3 0.4 0.1 0.9 0.1 1 0 1.6-0.3 0.5-0.3 0.7-0.8 0.3-0.5 0.3-1 0-0.6 0.1-1.9-0.6 0.8-1.4 1.3-0.8 0.4-1.9 0.4-1.3 0-2.3-0.6-0.9-0.7-1.5-1.9-0.5-1.2-0.5-2.8 0-1.1 0.3-2.1 0.4-0.9 0.9-1.6 0.6-0.6 1.4-0.9 0.8-0.4 1.7-0.4 1.1 0 1.9 0.5 0.8 0.4 1.5 1.3v-0.4q0-0.6 0.3-1 0.4-0.4 0.9-0.4 0.7 0 1 0.5 0.2 0.5 0.2 1.4zm-7.5 3.3q0 1.6 0.7 2.4 0.7 0.8 1.8 0.8 0.6 0 1.2-0.4 0.6-0.3 0.9-1 0.4-0.7 0.4-1.7 0-1.6-0.7-2.5-0.7-0.9-1.8-0.9-1.1 0-1.8 0.9-0.7 0.8-0.7 2.4z"/>
				<path id="&lt;Compound Path&gt;" class="s1" d="m-250.8 216v0.4q0.6-0.9 1.4-1.4 0.9-0.4 1.9-0.4 1 0 1.8 0.5 0.9 0.4 1.3 1.2 0.2 0.5 0.3 1 0.1 0.6 0.1 1.5v4.8q0 0.8-0.4 1.2-0.4 0.4-0.9 0.4-0.6 0-1-0.5-0.3-0.4-0.3-1.1v-4.3q0-1.3-0.4-2-0.3-0.7-1.4-0.7-0.7 0-1.3 0.4-0.5 0.4-0.8 1.2-0.2 0.5-0.2 2.1v3.3q0 0.8-0.4 1.2-0.3 0.4-0.9 0.4-0.6 0-0.9-0.5-0.4-0.4-0.4-1.1v-7.5q0-0.8 0.3-1.1 0.4-0.4 0.9-0.4 0.4 0 0.6 0.2 0.3 0.1 0.5 0.5 0.2 0.3 0.2 0.7z"/>
				<path id="&lt;Compound Path&gt;" fill-rule="evenodd" class="s1" d="m-235.1 220.5h-5q0 0.9 0.3 1.6 0.4 0.7 0.9 1 0.6 0.3 1.3 0.3 0.5 0 0.9-0.1 0.3-0.1 0.7-0.3 0.4-0.2 0.7-0.5 0.3-0.3 0.7-0.7 0.2-0.2 0.6-0.2 0.4 0 0.7 0.2 0.2 0.2 0.2 0.6 0 0.4-0.3 0.8-0.2 0.5-0.8 1-0.6 0.4-1.4 0.7-0.8 0.3-1.9 0.3-2.5 0-3.9-1.5-1.4-1.4-1.4-3.8 0-1.2 0.3-2.2 0.4-1 1-1.7 0.7-0.7 1.7-1 0.9-0.4 2.1-0.4 1.5 0 2.6 0.6 1.1 0.7 1.6 1.7 0.6 1 0.6 2.1 0 0.9-0.6 1.2-0.6 0.3-1.6 0.3zm-5-1.5h4.7q-0.1-1.3-0.8-1.9-0.6-0.7-1.6-0.7-1 0-1.6 0.7-0.6 0.6-0.7 1.9z"/>
				<path id="&lt;Compound Path&gt;" fill-rule="evenodd" class="s1" d="m-224.5 223.7v-0.3q-0.5 0.6-1 1-0.5 0.4-1.1 0.6-0.6 0.2-1.3 0.2-1 0-1.8-0.4-0.7-0.4-1.3-1.2-0.6-0.7-0.9-1.7-0.3-1-0.3-2.1 0-2.5 1.2-3.8 1.2-1.4 3.1-1.4 1.1 0 1.9 0.4 0.8 0.4 1.5 1.2v-3.8q0-0.8 0.3-1.2 0.3-0.4 0.9-0.4 0.6 0 0.9 0.3 0.3 0.4 0.3 1.1v11.5q0 0.7-0.3 1.1-0.3 0.4-0.9 0.4-0.5 0-0.9-0.4-0.3-0.4-0.3-1.1zm-5.1-3.8q0 1 0.3 1.8 0.4 0.7 0.9 1.1 0.6 0.3 1.3 0.3 0.7 0 1.2-0.3 0.6-0.4 0.9-1.1 0.4-0.7 0.4-1.8 0-1.1-0.4-1.8-0.3-0.8-0.9-1.2-0.6-0.4-1.3-0.4-0.7 0-1.2 0.5-0.6 0.4-0.9 1.1-0.3 0.8-0.3 1.8z"/>
				<path id="&lt;Compound Path&gt;" fill-rule="evenodd" class="s1" d="m-213.9 212.2v4q0.7-0.8 1.5-1.2 0.7-0.4 1.9-0.4 1.3 0 2.2 0.6 1 0.7 1.5 1.8 0.6 1.2 0.6 2.8 0 1.2-0.3 2.1-0.3 1-0.9 1.7-0.6 0.8-1.4 1.2-0.8 0.4-1.8 0.4-0.6 0-1.1-0.2-0.5-0.1-0.9-0.4-0.4-0.2-0.6-0.4-0.3-0.3-0.7-0.8v0.3q0 0.7-0.4 1.1-0.3 0.4-0.8 0.4-0.6 0-0.9-0.4-0.4-0.4-0.4-1.1v-11.4q0-0.7 0.4-1.1 0.3-0.4 0.9-0.4 0.5 0 0.9 0.3 0.3 0.4 0.3 1.1zm0.1 7.7q0 1.6 0.7 2.4 0.7 0.8 1.9 0.8 1 0 1.7-0.8 0.7-0.9 0.7-2.4 0-1.1-0.3-1.8-0.3-0.7-0.9-1.1-0.5-0.5-1.2-0.5-0.8 0-1.3 0.5-0.6 0.4-1 1.1-0.3 0.8-0.3 1.8z"/>
				<path id="&lt;Compound Path&gt;" class="s1" d="m-202.9 225.5l0.3-0.6-3.2-8q-0.3-0.7-0.3-1 0-0.4 0.2-0.7 0.1-0.2 0.4-0.4 0.3-0.2 0.7-0.2 0.5 0 0.8 0.4 0.3 0.3 0.5 1l2.2 6.4 2.1-6q0.2-0.7 0.4-1.1 0.2-0.4 0.4-0.5 0.3-0.2 0.7-0.2 0.3 0 0.5 0.2 0.3 0.1 0.5 0.4 0.1 0.3 0.1 0.5 0 0.2-0.1 0.6-0.1 0.3-0.2 0.6l-3.4 8.9q-0.4 1.2-0.9 1.8-0.4 0.7-1.1 1-0.7 0.4-1.8 0.4-1.2 0-1.7-0.2-0.6-0.3-0.6-1 0-0.4 0.3-0.6 0.2-0.3 0.8-0.3 0.2 0 0.4 0.1 0.2 0 0.4 0 0.5 0 0.7-0.1 0.3-0.1 0.5-0.5 0.2-0.3 0.4-0.9z"/>
			</g>
			<g id="&lt;Group&gt;" style="display: none">
				<path id="&lt;Path&gt;" class="s1" d="m-165.3 214.8h0.6v-0.7q0-1.3 0.3-2 0.3-0.7 1.1-1 0.7-0.4 2-0.4 2.3 0 2.3 1.2 0 0.3-0.3 0.6-0.2 0.2-0.5 0.2-0.2 0-0.6 0-0.3-0.1-0.6-0.1-0.7 0-0.9 0.4-0.2 0.4-0.2 1.2v0.6h0.6q1.5 0 1.5 0.9 0 0.7-0.4 0.8-0.4 0.2-1.1 0.2h-0.6v6.9q0 0.7-0.4 1.1-0.3 0.5-0.9 0.5-0.5 0-0.9-0.5-0.4-0.4-0.4-1.1v-6.9h-0.7q-0.6 0-0.9-0.3-0.3-0.2-0.3-0.6 0-1 1.3-1z"/>
				<path id="&lt;Path&gt;" class="s1" d="m-156.8 221.4v2.2q0 0.8-0.4 1.2-0.4 0.4-0.9 0.4-0.6 0-0.9-0.5-0.4-0.3-0.4-1.1v-7.2q0-1.8 1.3-1.8 0.6 0 0.9 0.4 0.3 0.4 0.3 1.2 0.5-0.8 1-1.2 0.4-0.4 1.3-0.4 0.8 0 1.5 0.4 0.8 0.4 0.8 1.1 0 0.5-0.3 0.8-0.3 0.3-0.7 0.3-0.2 0-0.7-0.2-0.6-0.2-1-0.2-0.5 0-0.9 0.3-0.4 0.3-0.6 0.9-0.2 0.6-0.2 1.4-0.1 0.8-0.1 2z"/>
				<path id="&lt;Compound Path&gt;" fill-rule="evenodd" class="s1" d="m-144.9 220.5h-5.1q0 0.9 0.4 1.6 0.3 0.6 0.9 1 0.6 0.3 1.3 0.3 0.5 0 0.8-0.1 0.4-0.1 0.8-0.3 0.3-0.2 0.6-0.5 0.3-0.3 0.8-0.7 0.2-0.2 0.6-0.2 0.4 0 0.7 0.2 0.2 0.2 0.2 0.6 0 0.4-0.3 0.8-0.2 0.5-0.8 1-0.6 0.4-1.4 0.7-0.8 0.3-1.9 0.3-2.5 0-3.9-1.5-1.4-1.4-1.4-3.8 0-1.2 0.3-2.2 0.4-1 1-1.7 0.7-0.7 1.6-1 1-0.4 2.2-0.4 1.5 0 2.6 0.6 1.1 0.7 1.6 1.7 0.5 1 0.5 2.1 0 0.9-0.5 1.2-0.6 0.3-1.6 0.3zm-5.1-1.5h4.7q-0.1-1.3-0.7-1.9-0.6-0.7-1.6-0.7-1 0-1.6 0.7-0.6 0.6-0.8 1.9z"/>
				<path id="&lt;Compound Path&gt;" fill-rule="evenodd" class="s1" d="m-134.1 220.5h-5.1q0 0.9 0.4 1.6 0.3 0.6 0.9 1 0.6 0.3 1.3 0.3 0.4 0 0.8-0.1 0.4-0.1 0.8-0.3 0.3-0.2 0.6-0.5 0.3-0.3 0.8-0.7 0.2-0.2 0.6-0.2 0.4 0 0.6 0.2 0.3 0.2 0.3 0.6 0 0.4-0.3 0.8-0.3 0.5-0.8 1-0.6 0.4-1.4 0.7-0.9 0.3-2 0.3-2.5 0-3.8-1.5-1.4-1.4-1.4-3.8 0-1.2 0.3-2.2 0.4-1 1-1.7 0.7-0.7 1.6-1 1-0.4 2.2-0.4 1.5 0 2.6 0.6 1.1 0.7 1.6 1.7 0.5 1 0.5 2.1 0 0.9-0.5 1.2-0.6 0.3-1.6 0.3zm-5.1-1.5h4.7q-0.1-1.3-0.7-1.9-0.6-0.7-1.6-0.7-1 0-1.6 0.7-0.6 0.6-0.8 1.9z"/>
				<path id="&lt;Compound Path&gt;" fill-rule="evenodd" class="s1" d="m-128.4 216.1v0.3q0.7-0.9 1.5-1.4 0.8-0.4 1.8-0.4 1.2 0 2.2 0.6 1 0.7 1.6 1.8 0.6 1.2 0.6 2.9 0 1.2-0.4 2.2-0.3 1-0.9 1.6-0.6 0.7-1.4 1.1-0.8 0.3-1.7 0.4-1.1 0-1.9-0.5-0.7-0.4-1.4-1.3v3.9q0 1.7-1.3 1.7-0.7 0-0.9-0.4-0.3-0.5-0.3-1.3v-11.2q0-0.8 0.4-1.1 0.3-0.4 0.8-0.4 0.6 0 0.9 0.4 0.4 0.4 0.4 1.1zm5.1 3.7q0-1-0.4-1.7-0.3-0.8-0.8-1.2-0.6-0.4-1.2-0.4-1.1 0-1.9 0.9-0.7 0.8-0.7 2.5 0 1.5 0.7 2.4 0.8 0.8 1.9 0.8 0.6 0 1.1-0.3 0.6-0.4 0.9-1.2 0.4-0.7 0.4-1.8z"/>
				<path id="&lt;Compound Path&gt;" class="s1" d="m-118.1 213.4q-0.6 0-0.9-0.3-0.4-0.4-0.4-1 0-0.5 0.4-0.9 0.4-0.3 0.9-0.3 0.5 0 0.9 0.3 0.4 0.3 0.4 0.9 0 0.6-0.4 1-0.4 0.3-0.9 0.3zm1.3 2.7v7.5q0 0.8-0.4 1.1-0.4 0.5-0.9 0.5-0.6 0-1-0.5-0.3-0.4-0.3-1.1v-7.4q0-0.8 0.3-1.2 0.4-0.4 1-0.4 0.5 0 0.9 0.4 0.4 0.4 0.4 1.1z"/>
				<path id="&lt;Path&gt;" class="s1" d="m-108.5 224l-2.3-3.8-1.4 1.3v2.1q0 0.7-0.4 1.1-0.4 0.5-0.9 0.5-0.6 0-0.9-0.5-0.4-0.3-0.4-1.1v-11.1q0-0.8 0.4-1.3 0.3-0.5 0.9-0.5 0.6 0 1 0.5 0.3 0.4 0.3 1.2v6.3l2.9-3.1q0.6-0.6 0.9-0.8 0.3-0.2 0.7-0.2 0.4 0 0.8 0.3 0.3 0.3 0.3 0.8 0 0.6-1.1 1.5l-1.3 1.3 2.6 4.2q0.3 0.4 0.5 0.7 0.1 0.2 0.1 0.4 0 0.6-0.4 1-0.3 0.4-0.8 0.4-0.5 0-0.8-0.3-0.2-0.3-0.7-0.9z"/>
				<path id="&lt;Path&gt;" class="s1" d="m-102.8 225.2q-0.6 0-1.1-0.4-0.4-0.4-0.4-1.1 0-0.6 0.4-1 0.4-0.4 1-0.4 0.6 0 1.1 0.4 0.4 0.4 0.4 1 0 0.7-0.4 1.1-0.5 0.4-1 0.4z"/>
				<path id="&lt;Path&gt;" class="s1" d="m-89.9 221.9q0 0.5-0.3 1.1-0.3 0.5-0.9 1-0.6 0.5-1.5 0.8-0.9 0.3-2 0.3-2.5 0-3.8-1.4-1.3-1.4-1.3-3.7 0-1.6 0.6-2.9 0.6-1.2 1.8-1.8 1.1-0.7 2.7-0.7 1.1 0 1.9 0.3 0.8 0.3 1.4 0.7 0.6 0.5 0.9 1 0.3 0.6 0.3 1 0 0.5-0.3 0.8-0.4 0.3-0.9 0.3-0.3 0-0.5-0.1-0.2-0.2-0.5-0.6-0.5-0.7-1-1.1-0.5-0.3-1.3-0.3-1.1 0-1.8 0.9-0.7 0.9-0.7 2.4 0 0.8 0.1 1.4 0.2 0.6 0.6 1 0.3 0.5 0.8 0.7 0.5 0.2 1 0.2 0.8 0 1.4-0.4 0.5-0.3 1-1.1 0.2-0.4 0.5-0.6 0.3-0.3 0.7-0.3 0.4 0 0.7 0.4 0.4 0.3 0.4 0.7z"/>
				<path id="&lt;Compound Path&gt;" fill-rule="evenodd" class="s1" d="m-78.8 219.9q0 1.1-0.3 2.1-0.4 1-1.1 1.7-0.6 0.7-1.6 1.1-0.9 0.4-2.1 0.4-1.2 0-2.1-0.4-1-0.4-1.7-1.1-0.7-0.7-1-1.7-0.4-1-0.4-2.1 0-1.2 0.4-2.2 0.3-1 1-1.7 0.7-0.6 1.7-1 0.9-0.4 2.1-0.4 1.1 0 2.1 0.4 1 0.4 1.7 1.1 0.6 0.7 1 1.6 0.3 1 0.3 2.2zm-2.6 0q0-1.6-0.7-2.5-0.6-0.9-1.8-0.9-0.8 0-1.4 0.4-0.5 0.4-0.9 1.2-0.3 0.8-0.3 1.8 0 1 0.3 1.8 0.3 0.7 0.9 1.1 0.6 0.4 1.4 0.4 1.2 0 1.8-0.9 0.7-0.9 0.7-2.4z"/>
				<path id="&lt;Path&gt;" class="s1" d="m-68.9 220.1v3.4q0 0.8-0.3 1.2-0.4 0.5-1 0.5-0.6 0-1-0.5-0.3-0.4-0.3-1.2v-4.1q0-1-0.1-1.5-0.1-0.6-0.4-0.9-0.3-0.4-0.9-0.4-1.3 0-1.7 0.9-0.4 0.9-0.4 2.5v3.5q0 0.8-0.3 1.2-0.4 0.5-1 0.5-0.6 0-1-0.5-0.3-0.4-0.3-1.2v-7.4q0-0.7 0.3-1.1 0.3-0.4 0.9-0.4 0.5 0 0.9 0.4 0.3 0.3 0.3 0.9v0.3q0.7-0.8 1.5-1.2 0.7-0.4 1.7-0.4 1 0 1.7 0.4 0.7 0.4 1.1 1.2 0.7-0.8 1.4-1.2 0.8-0.4 1.7-0.4 1.1 0 1.8 0.4 0.8 0.5 1.2 1.2 0.3 0.7 0.3 2.3v5q0 0.8-0.4 1.2-0.3 0.5-0.9 0.5-0.6 0-1-0.5-0.4-0.4-0.4-1.2v-4.3q0-0.9 0-1.4-0.1-0.5-0.4-0.8-0.3-0.4-1-0.4-0.5 0-1 0.3-0.4 0.3-0.7 0.8-0.3 0.7-0.3 2.4z"/>
			</g>
			<g id="&lt;Group&gt;" style="display: none">
				<path id="&lt;Path&gt;" class="s1" d="m-189.6 219.3q0-0.1 0-0.1 0 0 0 0.1z"/>
				<path id="&lt;Path&gt;" class="s1" d="m-189.4 220.1q0 0 0 0-0.1-0.4-0.1-0.7 0 0.3 0.1 0.7z"/>
				<path id="&lt;Path&gt;" class="s1" d="m-188.6 222.5q0 0 0 0 0 0 0 0z"/>
				<path id="&lt;Path&gt;" class="s1" d="m-188.7 222.3q0 0 0-0.1 0 0.1 0 0.1z"/>
				<path id="&lt;Path&gt;" class="s1" d="m-189.2 221q0.2 0.6 0.5 1.2-0.3-0.6-0.5-1.2 0 0 0 0z"/>
				<path id="&lt;Path&gt;" class="s1" d="m-179.5 209.3c0.5 0 0.8 0.1 1.3 0.1l0.1-0.7c0 0-1.2-0.4-2.7-0.3l-0.1-0.4c0.4-0.1 0.8-0.5 0.8-1 0-0.6-0.5-1.1-1.1-1.1-0.5 0-1 0.5-1 1.1 0 0.5 0.3 0.9 0.8 1l0.2 0.5c-1.7 0.2-3 0.8-3 0.8l0.2 0.7q1.5-0.4 2.7-0.6c0.7 0 1.3-0.1 1.8-0.1z"/>
				<path id="&lt;Path&gt;" class="s1" d="m-188.6 213.2q0.1-0.1 0.1-0.2l-0.3-0.2-0.5-0.4c0 0.1-0.8 0.8-1.4 2.1q0-0.1-0.1-0.1-0.2-0.3-0.7-0.3 0 0 0 0-0.3 0-0.5-0.2 0.2-0.1 0.2-0.4c0-0.4-0.3-0.7-0.7-0.7-0.4 0-0.7 0.3-0.7 0.7 0 0.4 0.3 0.7 0.7 0.7q0.1 0 0.2 0c0.1 0.1 0.4 0.3 0.8 0.3q0.3 0 0.4 0.2c0.1 0.1 0.2 0.2 0.2 0.4q0 0 0 0c-0.5 1.2-0.3 2.7-0.3 2.7h1c0-0.5 0.1-1.5 0.4-2.2 0.5-1.5 1.2-2.4 1.2-2.4z"/>
				<path id="&lt;Path&gt;" class="s1" d="m-170.3 210.2c-0.4 0-0.7 0.3-0.7 0.7q0 0.1 0 0.1c-0.2 0.2-0.3 0.5-0.3 0.8q0 0.3-0.2 0.5-0.1 0.1-0.3 0.1c-0.7-1.1-1.7-1.8-1.7-1.8l-0.8 0.9q0.9 0.7 1.8 1.9c0.3 0.6 0.8 1.3 1.1 2.1l1-0.5c0 0-0.5-1.2-1.1-2.2q0.2-0.1 0.3-0.2 0.3-0.3 0.3-0.8 0-0.3 0.2-0.4 0.1 0.1 0.4 0.1c0.3 0 0.6-0.3 0.6-0.6 0-0.4-0.3-0.7-0.6-0.7z"/>
				<path id="&lt;Path&gt;" class="s1" d="m-173 219.4c-1.4 0.7-3.7 1.6-6.8 2-1.2 0.2-2.3 0.2-3.4 0.2-1.4 0-2.6-0.1-3.6-0.2-1-0.1-1.9-0.3-2.4-0.4q0.2 0.6 0.5 1.2 0 0 0 0 0 0.1 0 0.1 0.1 0.1 0.1 0.2 0 0 0 0 0.5 0.8 1.1 1.5c1.4 1.6 2.9 1.9 2.9 1.9h0.1c0 0 1.3 0.4 3.3 0.4q2.9 0 5.6-1.2c1.4-0.7 2.7-1.7 3.3-2.6q0.7-1.1 1-2.3c0.2-0.5 0.2-1.1 0.2-1.9-0.4 0.3-1 0.7-1.9 1.1z"/>
				<path id="&lt;Compound Path&gt;" fill-rule="evenodd" class="s1" d="m-187.4 212.7l0.1-0.1c0.9-0.9 2.1-1.6 3.5-2q1.4-0.5 2.5-0.6c0.8-0.1 1.3-0.1 1.8-0.1 0.5 0 0.8 0 1.2 0.1 1.1 0.2 3.3 0.9 5.3 3.8 0.7 1 1.5 2.6 1.7 3.6-0.2 0.2-1 0.7-2.1 1.3-1.3 0.6-3.6 1.5-6.5 1.9-4.7 0.6-8.8-0.3-9.5-0.5q-0.1-0.4-0.1-0.7-0.1-0.1-0.1-0.1 0-0.1 0-0.1 0-0.5 0-1c0 0 0-1.4 0.3-2.4 0.5-1.4 1.1-2.2 1.2-2.3 0.3-0.4 0.6-0.7 0.7-0.8zm9.8 1.9c0 0.9 0.8 1.7 1.7 1.7 1 0 1.8-0.8 1.8-1.7 0-1-0.8-1.8-1.8-1.8-0.9 0-1.7 0.8-1.7 1.8zm-9.3 1c0 1.5 1.2 2.8 2.8 2.8 1.5 0 2.8-1.3 2.8-2.8 0-1.6-1.3-2.8-2.8-2.8-1.6 0-2.8 1.2-2.8 2.8z"/>
			</g>
		</g>
	</g>
</svg>